<?xml version="1.0" encoding="utf-8"?>
<!-- Generator: Adobe Illustrator 22.1.0, SVG Export Plug-In . SVG Version: 6.00 Build 0)  -->
<svg version="1.1" xmlns="http://www.w3.org/2000/svg" xmlns:xlink="http://www.w3.org/1999/xlink" x="0px" y="0px"
	 viewBox="0 0 1500 1500" style="enable-background:new 0 0 1500 1500;" xml:space="preserve">
<style type="text/css">
	.st0{display:none;}
	.st1{display:inline;}
	.st2{fill:#990000;}
	.st3{fill:#FFFFFF;}
	.st4{fill:#CC9966;}
</style>
<g id="PERM_Clock" class="st0">
	<g class="st1">
		<circle cx="750" cy="750" r="25"/>
		<path d="M1002.9,992.7L790.8,780.6c-0.4-0.4-0.8-0.7-1.2-1c-2.3,4.4-6,8-10.4,10.4c0.3,0.4,0.6,0.8,1,1.2l212.1,212.1
			c1.5,1.5,3.4,2.2,5.3,2.2s3.8-0.7,5.3-2.2C1005.8,1000.4,1005.8,995.6,1002.9,992.7z"/>
		<path d="M750,700c2.3,0,4.5,0.3,6.7,0.9c0.5-1,0.8-2.2,0.8-3.4v-400c0-4.1-3.4-7.5-7.5-7.5c-4.1,0-7.5,3.4-7.5,7.5v400
			c0,1.2,0.3,2.4,0.8,3.4C745.5,700.3,747.7,700,750,700z"/>
	</g>
</g>
<g id="Red_Logo">
	<rect x="126.6" y="127.1" class="st2" width="1246.7" height="1246.7"/>
	<g>
		<circle class="st3" cx="750" cy="749.7" r="25"/>
		<path class="st3" d="M1002.9,992.4L790.8,780.3c-0.4-0.4-0.8-0.7-1.2-1c-2.3,4.4-6,8-10.4,10.4c0.3,0.4,0.6,0.8,1,1.2L992.3,1003
			c1.5,1.5,3.4,2.2,5.3,2.2s3.8-0.7,5.3-2.2C1005.8,1000.1,1005.8,995.4,1002.9,992.4z"/>
		<path class="st3" d="M750,699.7c2.3,0,4.5,0.3,6.7,0.9c0.5-1,0.8-2.2,0.8-3.4v-400c0-4.1-3.4-7.5-7.5-7.5c-4.1,0-7.5,3.4-7.5,7.5
			v400c0,1.2,0.3,2.4,0.8,3.4C745.5,700.1,747.7,699.7,750,699.7z"/>
	</g>
	<g>
		<g>
			<path class="st3" d="M471.1,1288.7c-9.3,0-18-1.4-25.9-4.3c-7.9-2.9-14.1-6.5-18.5-10.9c-2-2.1-2.8-4.6-2.5-7.3
				c0.3-2.7,1.6-5,3.9-6.7c2.7-2.1,5.3-3,7.9-2.7c2.6,0.3,4.8,1.5,6.7,3.5c2.3,2.5,5.9,4.9,10.9,7.1s10.6,3.3,16.7,3.3
				c7.7,0,13.6-1.3,17.7-3.8c4.1-2.5,6.2-5.8,6.3-9.8c0.1-4-1.8-7.5-5.7-10.4c-3.9-2.9-11.1-5.3-21.5-7.2
				c-13.5-2.7-23.2-6.7-29.3-12c-6.1-5.3-9.1-11.9-9.1-19.6c0-6.8,2-12.4,6-16.9c4-4.5,9.1-7.8,15.4-10c6.3-2.2,12.8-3.3,19.6-3.3
				c8.8,0,16.6,1.4,23.4,4.2c6.8,2.8,12.2,6.7,16.2,11.6c1.9,2.1,2.7,4.4,2.6,6.7c-0.1,2.3-1.3,4.3-3.4,5.9
				c-2.1,1.5-4.7,1.9-7.6,1.4c-2.9-0.5-5.4-1.7-7.4-3.6c-3.3-3.2-6.9-5.4-10.8-6.6c-3.9-1.2-8.3-1.8-13.4-1.8c-5.9,0-10.8,1-14.9,3
				c-4.1,2-6.1,4.9-6.1,8.8c0,2.4,0.6,4.6,1.9,6.5c1.3,1.9,3.8,3.7,7.5,5.2c3.7,1.5,9.2,3,16.4,4.5c10,2,17.9,4.5,23.7,7.6
				c5.8,3.1,10,6.6,12.5,10.7c2.5,4.1,3.8,8.8,3.8,14.1c0,6.1-1.6,11.7-4.9,16.6c-3.3,4.9-8.1,8.9-14.4,11.8
				C488.5,1287.3,480.6,1288.7,471.1,1288.7z"/>
			<path class="st3" d="M536.7,1287.9c-2.9,0-5.3-0.9-7.1-2.7c-1.8-1.8-2.7-4.2-2.7-7.1v-136.6c0-2.9,0.9-5.3,2.7-7.1
				c1.8-1.8,4.2-2.7,7.1-2.7c2.9,0,5.3,0.9,7.1,2.7c1.8,1.8,2.7,4.2,2.7,7.1v136.6c0,2.9-0.9,5.3-2.7,7.1
				C542,1287,539.6,1287.9,536.7,1287.9z M546.1,1247.9l-12.4-13.6l61.4-54.8c2-1.9,4.2-2.7,6.7-2.6c2.5,0.1,4.6,1.2,6.3,3.2
				c1.9,2,2.7,4.2,2.6,6.6c-0.1,2.4-1.2,4.5-3.2,6.4L546.1,1247.9z M608.1,1286.9c-2.1,1.7-4.5,2.5-7.1,2.3s-4.8-1.4-6.5-3.5
				l-40.6-50.2l14-13.2l41.6,51.2c1.7,2.1,2.5,4.4,2.3,6.9C611.6,1282.9,610.4,1285.1,608.1,1286.9z"/>
			<path class="st3" d="M679.1,1288.7c-11.1,0-20.9-2.4-29.5-7.1c-8.6-4.7-15.3-11.3-20.2-19.6c-4.9-8.3-7.3-17.9-7.3-28.7
				c0-10.9,2.3-20.6,6.9-28.9c4.6-8.3,11-14.9,19.1-19.6c8.1-4.7,17.5-7.1,28-7.1c10.4,0,19.3,2.3,26.8,6.9
				c7.5,4.6,13.2,10.9,17.1,19c3.9,8.1,5.9,17.4,5.9,27.9c0,2.5-0.9,4.6-2.6,6.3c-1.7,1.7-3.9,2.5-6.6,2.5h-80.6v-16h80l-8.2,5.6
				c-0.1-6.7-1.5-12.6-4-17.9c-2.5-5.3-6.1-9.4-10.8-12.5c-4.7-3.1-10.3-4.6-17-4.6c-7.6,0-14.1,1.7-19.5,5
				c-5.4,3.3-9.5,7.9-12.3,13.7c-2.8,5.8-4.2,12.4-4.2,19.7c0,7.3,1.7,13.9,5,19.6c3.3,5.7,7.9,10.3,13.8,13.6
				c5.9,3.3,12.6,5,20.2,5c4.1,0,8.4-0.8,12.7-2.3c4.3-1.5,7.8-3.3,10.5-5.3c2-1.5,4.2-2.2,6.5-2.3c2.3-0.1,4.4,0.6,6.1,2.1
				c2.3,2,3.5,4.2,3.6,6.6c0.1,2.4-0.9,4.5-3.2,6.2c-4.5,3.6-10.2,6.5-16.9,8.8C691.7,1287.6,685.2,1288.7,679.1,1288.7z"/>
			<path class="st3" d="M788.5,1288.7c-10.4,0-19.8-2.4-28.1-7.3c-8.3-4.9-14.9-11.5-19.8-19.9c-4.9-8.4-7.3-17.9-7.3-28.4
				c0-10.5,2.2-20,6.7-28.3c4.5-8.3,10.6-14.9,18.3-19.8c7.7-4.9,16.5-7.3,26.2-7.3c7.9,0,15.1,1.6,21.8,4.9
				c6.7,3.3,12.3,7.7,16.8,13.3v-54c0-3.1,1-5.5,2.9-7.4c1.9-1.9,4.4-2.8,7.3-2.8c3.1,0,5.5,0.9,7.4,2.8c1.9,1.9,2.8,4.3,2.8,7.4
				v91.2c0,10.5-2.4,20-7.3,28.4c-4.9,8.4-11.4,15-19.7,19.9C808.2,1286.3,798.9,1288.7,788.5,1288.7z M788.5,1270.7
				c6.8,0,12.9-1.6,18.2-4.9c5.3-3.3,9.5-7.8,12.6-13.5c3.1-5.7,4.6-12.1,4.6-19.2c0-7.2-1.5-13.6-4.6-19.2
				c-3.1-5.6-7.3-10-12.6-13.3c-5.3-3.3-11.4-4.9-18.2-4.9c-6.7,0-12.7,1.6-18.1,4.9c-5.4,3.3-9.7,7.7-12.8,13.3
				c-3.1,5.6-4.7,12-4.7,19.2c0,7.1,1.6,13.5,4.7,19.2c3.1,5.7,7.4,10.2,12.8,13.5C775.8,1269.1,781.8,1270.7,788.5,1270.7z"/>
			<path class="st3" d="M912.1,1288.7c-10,0-18.8-2.4-26.5-7.1c-7.7-4.7-13.7-11.3-18.1-19.6c-4.4-8.3-6.6-17.9-6.6-28.7
				c0-10.9,2.4-20.6,7.1-28.9c4.7-8.3,11.2-14.9,19.5-19.6c8.3-4.7,17.8-7.1,28.6-7.1c10.7,0,20.1,2.4,28.4,7.1
				c8.3,4.7,14.8,11.3,19.5,19.6c4.7,8.3,7.1,18,7.1,28.9h-11.8c0,10.8-2,20.4-6.1,28.7c-4.1,8.3-9.6,14.9-16.7,19.6
				C929.4,1286.4,921.3,1288.7,912.1,1288.7z M915.7,1333.3c-9.5,0-18.3-1.9-26.6-5.6c-8.3-3.7-15.3-9.2-21-16.4
				c-1.7-2.3-2.4-4.6-1.9-7c0.5-2.4,1.8-4.3,3.9-5.8c2.4-1.6,4.9-2.1,7.5-1.6c2.6,0.5,4.7,1.9,6.3,4c3.6,4.5,8.1,8.1,13.6,10.6
				c5.5,2.5,11.7,3.8,18.6,3.8c6.4,0,12.3-1.5,17.7-4.6c5.4-3.1,9.7-7.6,12.9-13.6c3.2-6,4.8-13.3,4.8-22v-28.4l6.6-17.6l13,4.2
				v43.2c0,10.5-2.3,20.1-7,28.7c-4.7,8.6-11.2,15.4-19.5,20.5C936.3,1330.8,926.6,1333.3,915.7,1333.3z M916.1,1270.7
				c6.9,0,13.1-1.6,18.4-4.8c5.3-3.2,9.5-7.6,12.5-13.2c3-5.6,4.5-12.1,4.5-19.4c0-7.3-1.5-13.8-4.5-19.5c-3-5.7-7.2-10.1-12.5-13.3
				c-5.3-3.2-11.5-4.8-18.4-4.8c-6.9,0-13.1,1.6-18.4,4.8c-5.3,3.2-9.5,7.6-12.6,13.3c-3.1,5.7-4.6,12.2-4.6,19.5
				c0,7.3,1.5,13.8,4.6,19.4c3.1,5.6,7.3,10,12.6,13.2C903,1269.1,909.2,1270.7,916.1,1270.7z"/>
			<path class="st3" d="M1039.9,1288.7c-11.1,0-20.9-2.4-29.5-7.1c-8.6-4.7-15.3-11.3-20.2-19.6c-4.9-8.3-7.3-17.9-7.3-28.7
				c0-10.9,2.3-20.6,6.9-28.9c4.6-8.3,11-14.9,19.1-19.6c8.1-4.7,17.5-7.1,28-7.1c10.4,0,19.3,2.3,26.8,6.9
				c7.5,4.6,13.2,10.9,17.1,19c3.9,8.1,5.9,17.4,5.9,27.9c0,2.5-0.9,4.6-2.6,6.3c-1.7,1.7-3.9,2.5-6.6,2.5h-80.6v-16h80l-8.2,5.6
				c-0.1-6.7-1.5-12.6-4-17.9c-2.5-5.3-6.1-9.4-10.8-12.5c-4.7-3.1-10.3-4.6-17-4.6c-7.6,0-14.1,1.7-19.5,5
				c-5.4,3.3-9.5,7.9-12.3,13.7c-2.8,5.8-4.2,12.4-4.2,19.7c0,7.3,1.7,13.9,5,19.6c3.3,5.7,7.9,10.3,13.8,13.6
				c5.9,3.3,12.6,5,20.2,5c4.1,0,8.4-0.8,12.7-2.3c4.3-1.5,7.8-3.3,10.5-5.3c2-1.5,4.2-2.2,6.5-2.3c2.3-0.1,4.4,0.6,6.1,2.1
				c2.3,2,3.5,4.2,3.6,6.6c0.1,2.4-0.9,4.5-3.2,6.2c-4.5,3.6-10.2,6.5-16.9,8.8C1052.5,1287.6,1046,1288.7,1039.9,1288.7z"/>
		</g>
	</g>
</g>
<g id="Cut_Through_Logo">
	<rect id="Gold" x="304.3" y="212.5" class="st4" width="899" height="1187.5"/>
	<path id="Cut_Through_Box" class="st2" d="M700.6,1231.3c1.9,3.9,3.1,8.2,3.7,12.8h-69.4c0.7-4,1.9-7.7,3.6-11.2
		c2.9-6,7.2-10.8,12.8-14.3c5.6-3.5,12.4-5.2,20.3-5.2c7,0,12.9,1.6,17.7,4.8C694.2,1221.4,698,1225.8,700.6,1231.3z M1400,100v1300
		H100V100H1400z M780.5,790.9c0.3,0.4,0.6,0.8,1,1.2l221.2,221.2c1.5,1.5,3.5,2.3,5.5,2.3c2,0,4-0.8,5.5-2.3c3.1-3.1,3.1-8,0-11.1
		L792.5,781.1c-0.4-0.4-0.8-0.7-1.2-1C788.8,784.7,785.1,788.5,780.5,790.9z M742.2,694.5c0,1.3,0.3,2.5,0.9,3.6
		c2.2-0.6,4.5-0.9,7-0.9s4.7,0.3,7,0.9c0.5-1.1,0.9-2.3,0.9-3.6V277.4c0-4.3-3.5-7.8-7.8-7.8c-4.3,0-7.8,3.5-7.8,7.8V694.5z
		 M515.6,1277c0-5.6-1.3-10.5-4-14.7c-2.6-4.2-7-8-13-11.2c-6-3.2-14.3-5.8-24.7-7.9c-7.5-1.5-13.2-3.1-17.1-4.7
		c-3.9-1.6-6.5-3.4-7.8-5.4c-1.3-2-2-4.3-2-6.8c0-4,2.1-7.1,6.4-9.2c4.2-2.1,9.4-3.1,15.5-3.1c5.3,0,9.9,0.6,14,1.9
		c4,1.3,7.8,3.5,11.3,6.9c2.1,1.9,4.7,3.2,7.7,3.8c3.1,0.6,5.7,0.1,7.9-1.5c2.2-1.7,3.4-3.7,3.5-6.2c0.1-2.4-0.8-4.8-2.7-7
		c-4.2-5.1-9.8-9.2-16.9-12.1c-7.1-2.9-15.2-4.4-24.4-4.4c-7.1,0-13.9,1.1-20.4,3.4c-6.5,2.3-11.9,5.8-16.1,10.4
		c-4.2,4.7-6.3,10.5-6.3,17.6c0,8.1,3.2,14.9,9.5,20.4c6.3,5.6,16.5,9.7,30.6,12.5c10.8,1.9,18.3,4.5,22.4,7.5
		c4.1,3.1,6.1,6.7,5.9,10.8c-0.1,4.2-2.3,7.6-6.6,10.2c-4.2,2.6-10.4,4-18.5,4c-6.4,0-12.2-1.1-17.4-3.4s-9-4.8-11.4-7.4
		c-1.9-2.1-4.3-3.3-7-3.6c-2.7-0.3-5.5,0.6-8.2,2.8c-2.4,1.8-3.7,4.1-4.1,7c-0.3,2.9,0.5,5.4,2.6,7.6c4.6,4.6,11,8.4,19.3,11.4
		c8.3,3,17.3,4.5,27,4.5c9.9,0,18.1-1.5,24.7-4.6c6.6-3.1,11.6-7.2,15-12.3C513.9,1289.2,515.6,1283.4,515.6,1277z M613.1,1295.4
		l-40.4-49.7l38.3-34.2c2.1-1.9,3.2-4.2,3.3-6.7c0.1-2.5-0.8-4.8-2.7-6.9c-1.8-2.1-4-3.2-6.6-3.3c-2.6-0.1-4.9,0.8-7,2.7l-50.7,45.2
		v-84.9c0-3.1-0.9-5.5-2.8-7.4c-1.9-1.9-4.3-2.8-7.4-2.8c-3.1,0-5.5,0.9-7.4,2.8c-1.9,1.9-2.8,4.3-2.8,7.4v142.4
		c0,3.1,0.9,5.5,2.8,7.4c1.9,1.9,4.3,2.8,7.4,2.8c3.1,0,5.5-0.9,7.4-2.8c1.9-1.9,2.8-4.3,2.8-7.4v-31.9l10.4-9.3l39.7,49.1
		c1.8,2.2,4.1,3.4,6.8,3.6s5.2-0.6,7.4-2.4c2.4-1.9,3.6-4.2,3.9-6.8C615.7,1300,614.9,1297.6,613.1,1295.4z M723.5,1251.6
		c0-11-2.1-20.7-6.2-29.1c-4.1-8.4-10-15-17.8-19.8c-7.8-4.8-17.1-7.2-27.9-7.2c-11,0-20.7,2.5-29.2,7.4
		c-8.5,4.9-15.1,11.8-19.9,20.4c-4.8,8.7-7.2,18.7-7.2,30.1c0,11.3,2.5,21.2,7.6,29.9c5.1,8.7,12.1,15.5,21.1,20.4
		c9,4.9,19.2,7.4,30.8,7.4c6.4,0,13.1-1.2,20.1-3.5c7-2.4,12.9-5.4,17.6-9.2c2.4-1.8,3.5-4,3.3-6.5c-0.1-2.5-1.4-4.8-3.8-6.9
		c-1.8-1.5-3.9-2.3-6.4-2.2c-2.4,0.1-4.7,0.9-6.8,2.4c-2.8,2.1-6.4,3.9-10.9,5.5c-4.5,1.6-8.9,2.4-13.2,2.4
		c-7.9,0-14.9-1.7-21.1-5.2c-6.1-3.5-10.9-8.2-14.4-14.2c-2.3-4-3.9-8.4-4.6-13.1H714c2.8,0,5.1-0.9,6.9-2.6
		C722.6,1256.4,723.5,1254.2,723.5,1251.6z M723.9,749.2c0,14.4,11.7,26.1,26.1,26.1s26.1-11.7,26.1-26.1
		c0-14.4-11.7-26.1-26.1-26.1S723.9,734.8,723.9,749.2z M843.7,1158.2c0-3.2-1-5.8-2.9-7.7c-1.9-1.9-4.5-2.9-7.7-2.9
		c-3.1,0-5.6,1-7.6,2.9c-2,1.9-3,4.5-3,7.7v56.3c-4.7-5.8-10.6-10.5-17.5-13.9c-7-3.4-14.5-5.1-22.7-5.1c-10.2,0-19.3,2.5-27.3,7.6
		c-8.1,5.1-14.4,12-19.1,20.6c-4.7,8.7-7,18.5-7,29.5c0,11,2.5,20.9,7.6,29.6c5.1,8.8,12,15.7,20.6,20.8c8.7,5.1,18.5,7.6,29.3,7.6
		c10.8,0,20.6-2.5,29.2-7.6c8.6-5.1,15.5-12,20.5-20.8c5.1-8.8,7.6-18.6,7.6-29.6V1158.2z M970.9,1253.5c0-11.4-2.5-21.4-7.4-30.1
		c-4.9-8.7-11.7-15.5-20.3-20.4c-8.6-4.9-18.5-7.4-29.6-7.4c-11.3,0-21.2,2.5-29.8,7.4c-8.6,4.9-15.4,11.8-20.3,20.4
		c-4.9,8.7-7.4,18.7-7.4,30.1c0,11.3,2.3,21.2,6.9,29.9c4.6,8.7,10.9,15.5,18.9,20.4c8,4.9,17.2,7.4,27.6,7.4
		c9.6,0,18.1-2.5,25.4-7.4c6.4-4.3,11.6-10,15.6-17.1v10.3c0,9-1.7,16.7-5,22.9c-3.3,6.3-7.8,11-13.5,14.2
		c-5.6,3.2-11.8,4.8-18.5,4.8c-7.2,0-13.7-1.3-19.4-4c-5.7-2.6-10.4-6.3-14.2-11.1c-1.7-2.2-3.9-3.6-6.6-4.2c-2.7-0.6-5.3,0-7.8,1.7
		c-2.2,1.5-3.6,3.5-4.1,6c-0.5,2.5,0.2,4.9,2,7.3c6,7.5,13.3,13.2,21.9,17.1c8.6,3.9,17.9,5.8,27.7,5.8c11.4,0,21.4-2.6,30.1-7.9
		c8.7-5.3,15.5-12.4,20.3-21.4c4.9-9,7.3-18.9,7.3-29.9V1253.5z M1089.5,1251.6c0-11-2.1-20.7-6.2-29.1c-4.1-8.4-10-15-17.8-19.8
		c-7.8-4.8-17.1-7.2-27.9-7.2c-11,0-20.7,2.5-29.2,7.4c-8.5,4.9-15.1,11.8-19.9,20.4c-4.8,8.7-7.2,18.7-7.2,30.1
		c0,11.3,2.5,21.2,7.6,29.9c5.1,8.7,12.1,15.5,21.1,20.4c9,4.9,19.2,7.4,30.8,7.4c6.4,0,13.1-1.2,20.1-3.5c7-2.4,12.9-5.4,17.6-9.2
		c2.4-1.8,3.5-4,3.3-6.5c-0.1-2.5-1.4-4.8-3.8-6.9c-1.8-1.5-3.9-2.3-6.4-2.2c-2.4,0.1-4.7,0.9-6.8,2.4c-2.8,2.1-6.4,3.9-10.9,5.5
		c-4.5,1.6-8.9,2.4-13.2,2.4c-7.9,0-14.9-1.7-21.1-5.2c-6.1-3.5-10.9-8.2-14.4-14.2c-2.3-4-3.9-8.4-4.6-13.1h79.3
		c2.8,0,5.1-0.9,6.9-2.6C1088.6,1256.4,1089.5,1254.2,1089.5,1251.6z M932.8,1219.3c-5.6-3.3-12-5-19.2-5c-7.2,0-13.6,1.7-19.2,5
		c-5.6,3.3-9.9,8-13.1,13.9c-3.2,5.9-4.8,12.7-4.8,20.3c0,7.6,1.6,14.4,4.8,20.2c3.2,5.8,7.6,10.4,13.1,13.8c5.6,3.3,12,5,19.2,5
		c7.2,0,13.6-1.7,19.2-5c5.6-3.3,9.9-7.9,13-13.8c3.1-5.8,4.7-12.6,4.7-20.2c0-7.6-1.6-14.4-4.7-20.3
		C942.7,1227.2,938.3,1222.6,932.8,1219.3z M1055.3,1218.2c-4.9-3.2-10.8-4.8-17.7-4.8c-7.9,0-14.7,1.7-20.3,5.2
		c-5.6,3.5-9.9,8.2-12.8,14.3c-1.7,3.5-2.8,7.2-3.6,11.2h69.4c-0.6-4.6-1.8-8.9-3.7-12.8C1063.9,1225.8,1060.2,1221.4,1055.3,1218.2
		z M805.4,1219.4c-5.6-3.4-11.9-5.1-19-5.1c-7,0-13.2,1.7-18.9,5.1c-5.6,3.4-10.1,8-13.3,13.9c-3.3,5.8-4.9,12.5-4.9,20
		c0,7.4,1.6,14,4.9,20c3.3,6,7.7,10.7,13.3,14.1c5.6,3.4,11.9,5.1,18.9,5.1c7.1,0,13.4-1.7,19-5.1c5.6-3.4,9.9-8.1,13.1-14.1
		c3.2-6,4.8-12.7,4.8-20c0-7.5-1.6-14.2-4.8-20C815.3,1227.4,810.9,1222.8,805.4,1219.4z"/>
</g>
</svg>
